# xmcd CD database file
#
# Track frame offsets:
#	150
#	21780
#	38895
#	58950
#	81285
#	101635
#	122140
#	149162
#	171240
#	195620
#	220040
#
# Disc length: 3193 seconds
#
# Revision: 0
# Processed by: cddbd v1.5.2PL0 Copyright (c) Steve Scherf et al.
# Submitted via: CDex 1.51
#
DISCID=a50c770b
DTITLE=中西保志 - I'm Here
DYEAR=1996
DGENRE=J ポップ
TTITLE0=どうして君を傷つけたのだろう
TTITLE1=Where Do We Go From Here Duet Whith Kenya Hatthaway
TTITLE2=君のせいじゃない
TTITLE3=メリークリスマスを言う前に
TTITLE4=心のままに
TTITLE5=We Are
TTITLE6=Cheers
TTITLE7=悲しみのためじゃない
TTITLE8=Rainy Blue
TTITLE9=涙の温度
TTITLE10=冬の扉
EXTD=YEAR: 1996.10.01
EXTT0=
EXTT1=
EXTT2=
EXTT3=
EXTT4=
EXTT5=
EXTT6=
EXTT7=
EXTT8=
EXTT9=
EXTT10=
PLAYORDER=
